<?xml version="1.0" encoding="UTF-8"?>
<!-- Generated by Pixelmator Pro 3.6.13 -->
<svg width="16" height="16" viewBox="0 0 16 16" xmlns="http://www.w3.org/2000/svg">
    <path id="Path" fill="#60d838" stroke="none" d="M 9.293 0 L 4 0 C 2.895431 0 2 0.895431 2 2 L 2 14 C 2 15.104569 2.895431 16 4 16 L 12 16 C 13.104569 16 14 15.104569 14 14 L 14 4.707 C 13.999944 4.441805 13.894549 4.187492 13.707 4 L 10 0.293 C 9.812508 0.105451 9.558195 5.6e-05 9.293 0 M 9.5 3.5 L 9.5 1.5 L 12.5 4.5 L 10.5 4.5 C 9.947715 4.5 9.5 4.052284 9.5 3.5 M 10.854 7.854 L 7.854 10.854 C 7.760196 10.948042 7.632827 11.000894 7.5 11.000894 C 7.367173 11.000894 7.239804 10.948042 7.146 10.854 L 5.646 9.354 C 5.450491 9.158491 5.450491 8.841509 5.646 8.646 C 5.841509 8.450491 6.158491 8.450491 6.354 8.646 L 7.5 9.793 L 10.146 7.146 C 10.341509 6.950491 10.658491 6.950491 10.854 7.146 C 11.049509 7.341509 11.049509 7.658491 10.854 7.854"/>
</svg>
