<?xml version="1.0" encoding="UTF-8"?>
<!-- Generated by Pixelmator Pro 3.6.13 -->
<svg width="16" height="16" viewBox="0 0 16 16" xmlns="http://www.w3.org/2000/svg">
    <path id="Path" fill="#ed230d" stroke="none" d="M 16 8 C 16 12.418278 12.418278 16 8 16 C 3.581722 16 0 12.418278 0 8 C 0 3.581722 3.581722 0 8 0 C 12.418278 0 16 3.581722 16 8 M 5.354 4.646 C 5.158491 4.450491 4.841509 4.450491 4.646 4.646 C 4.450491 4.841509 4.450491 5.158491 4.646 5.354 L 7.293 8 L 4.646 10.646 C 4.450491 10.841509 4.450491 11.158491 4.646 11.354 C 4.841509 11.549509 5.158491 11.549509 5.354 11.354 L 8 8.707 L 10.646 11.354 C 10.841509 11.549509 11.158491 11.549509 11.354 11.354 C 11.549509 11.158491 11.549509 10.841509 11.354 10.646 L 8.707 8 L 11.354 5.354 C 11.549509 5.158491 11.549509 4.841509 11.354 4.646 C 11.158491 4.450491 10.841509 4.450491 10.646 4.646 L 8 7.293 Z"/>
</svg>
