<?xml version="1.0" encoding="UTF-8"?>
<!-- Generated by Pixelmator Pro 3.6.13 -->
<svg width="16" height="16" viewBox="0 0 16 16" xmlns="http://www.w3.org/2000/svg">
    <path id="Path" fill="#60d838" stroke="none" d="M 16 8 C 16 12.418278 12.418278 16 8 16 C 3.581722 16 0 12.418278 0 8 C 0 3.581722 3.581722 0 8 0 C 12.418278 0 16 3.581722 16 8 M 12.03 4.969999 C 11.885672 4.826175 11.689037 4.747262 11.485323 4.751411 C 11.28161 4.755562 11.088352 4.842417 10.95 4.992001 L 7.477 9.417 L 5.384 7.323 C 5.08849 7.047642 4.62799 7.055766 4.342378 7.341378 C 4.056766 7.62699 4.048641 8.08749 4.324 8.383 L 6.97 11.03 C 7.114025 11.173762 7.310285 11.25283 7.513746 11.249058 C 7.717207 11.245287 7.910402 11.159001 8.049 11.01 L 12.041 6.02 C 12.324098 5.725653 12.319653 5.258903 12.031 4.969999 Z"/>
</svg>
