<?xml version="1.0" encoding="UTF-8"?>
<!-- Generated by Pixelmator Pro 3.6.13 -->
<svg width="16" height="16" viewBox="0 0 16 16" xmlns="http://www.w3.org/2000/svg">
    <path id="Path" fill="#ff324b" stroke="none" d="M 9.293 0 L 4 0 C 2.895431 0 2 0.895431 2 2 L 2 14 C 2 15.104569 2.895431 16 4 16 L 12 16 C 13.104569 16 14 15.104569 14 14 L 14 4.707 C 13.999944 4.441805 13.894549 4.187492 13.707 4 L 10 0.293 C 9.812508 0.105451 9.558195 5.6e-05 9.293 0 M 9.5 3.5 L 9.5 1.5 L 12.5 4.5 L 10.5 4.5 C 9.947715 4.5 9.5 4.052284 9.5 3.5 M 5.884 6.68 L 8 9.219 L 10.116 6.679 C 10.293007 6.466923 10.608422 6.438493 10.8205 6.615499 C 11.032578 6.792507 11.061007 7.107923 10.884 7.32 L 8.651 10 L 10.884 12.68 C 11.052733 12.892657 11.020957 13.201103 10.81241 13.374892 C 10.603863 13.548681 10.294744 13.524316 10.116 13.32 L 8 10.781 L 5.884 13.321 C 5.706993 13.533077 5.391577 13.561507 5.1795 13.3845 C 4.967422 13.207493 4.938993 12.892077 5.116 12.68 L 7.349 10 L 5.116 7.32 C 4.996498 7.183401 4.9604 6.992771 5.021688 6.821938 C 5.082977 6.651105 5.232025 6.526897 5.41111 6.49742 C 5.590194 6.467943 5.77119 6.537824 5.884 6.68"/>
</svg>
